<svg xmlns="http://www.w3.org/2000/svg" version="1.1" xmlns:xlink="http://www.w3.org/1999/xlink" width="512" height="512" x="0" y="0" viewBox="8 8 48 48" style="enable-background:new 0 0 512 512" xml:space="preserve" fill-rule="evenodd"><g transform="matrix(1.5000000000000027,0,0,1.5000000000000027,-15.998240590095602,-15.998260498046939)"><path fill="#66a4ff" d="M62 31.997C62 15.425 48.568 1.993 31.997 1.993c-16.572 0-30.004 13.432-30.004 30.004C1.993 48.568 15.425 62 31.997 62 48.568 62 62 48.568 62 31.997z" opacity="1" data-original="#66a4ff"></path><path fill="#5692d8" d="M12.875 8.875C6.228 14.377 1.993 22.692 1.993 31.997 1.993 48.568 15.425 62 31.997 62c9.304 0 17.619-4.235 23.122-10.882A29.883 29.883 0 0 1 35.997 58C19.425 58 5.993 44.568 5.993 27.997c0-7.267 2.583-13.93 6.882-19.122z" opacity="1" data-original="#5692d8"></path><path fill="#94f283" d="M60.772 40.521C57.099 52.939 45.607 62 31.997 62a29.856 29.856 0 0 1-16.282-4.798l.201-1.075s5.536-8.314 10.809-8.314c5.272 0 7.908 2.635 13.18 2.635s5.272-2.635 7.908-5.271c2.635-2.636 11.914-4.692 11.914-4.692z" opacity="1" data-original="#94f283"></path><path fill="#94d688" d="M55.119 51.118C49.615 57.766 41.3 62 31.997 62a29.856 29.856 0 0 1-16.282-4.798l.201-1.075s1.131-1.698 2.857-3.56A29.867 29.867 0 0 0 35.997 58a29.883 29.883 0 0 0 19.122-6.882z" opacity="1" data-original="#94d688"></path><path fill="#94f283" d="m26.559 2.485.134 1.078s1.965 9.793-1.763 13.52c-3.728 3.728-7.456 3.728-11.184 7.456-3.727 3.729-1.864 5.593-1.864 9.32 0 3.729-5.108 11.742-5.108 11.742l-.707 1.501a29.862 29.862 0 0 1-4.074-15.105c0-14.714 10.59-26.953 24.566-29.512z" opacity="1" data-original="#94f283"></path><path fill="#94d688" d="M12.874 8.876a29.879 29.879 0 0 0-6.881 19.121c0 4.833 1.143 9.4 3.172 13.442-1.22 2.325-2.391 4.162-2.391 4.162l-.707 1.501a29.862 29.862 0 0 1-4.074-15.105c0-9.304 4.234-17.618 10.881-23.121z" opacity="1" data-original="#94d688"></path><path fill="#e5e5e5" d="m30.641 25.664-.797-.798c-1.655-1.654-4.13-2.291-5.699-.722l-.001.001c-1.569 1.569-.932 4.044.722 5.699l.798.797-2.613 7.226c-.133.368-.042.778.234 1.055l1.874 1.874c.189.189.445.295.712.296.267 0 .523-.107.712-.295l4.618-4.618 3.317 3.316-.438 3.759c-.036.305.07.61.288.828l.623.625a1.007 1.007 0 0 0 1.425 0l3.103-3.102 1.242.443c.366.131.775.039 1.05-.237.276-.275.368-.684.237-1.05l-.443-1.242 3.102-3.103a1.007 1.007 0 0 0 0-1.425l-.625-.623a1.004 1.004 0 0 0-.828-.288l-3.759.437-3.316-3.316 4.618-4.618a1.008 1.008 0 0 0-.001-1.424l-1.874-1.874a1.01 1.01 0 0 0-1.055-.235z" opacity="1" data-original="#e5e5e5"></path><path fill="#5692d8" d="m29.201 38.179 3.317 3.316-.438 3.759c-.036.305.07.61.288.828l.623.625a1.007 1.007 0 0 0 1.425 0l3.103-3.102 1.242.443c.366.131.775.039 1.05-.237.276-.275.368-.684.237-1.05l-.396-1.109-.133-.047-3.103 3.102a1.007 1.007 0 0 1-1.425 0l-.623-.625a1.004 1.004 0 0 1-.288-.828l.438-3.759-3.317-3.316zm-5.815-12.793a3.01 3.01 0 0 0-1.241.758l-.001.001c-1.569 1.569-.932 4.044.722 5.699l.798.797-2.613 7.226c-.133.368-.042.778.234 1.055l1.874 1.874c.189.189.445.295.712.296.267 0 .523-.107.712-.295l2-2a1.01 1.01 0 0 1-.712.295 1.012 1.012 0 0 1-.712-.296l-1.874-1.874a1.008 1.008 0 0 1-.234-1.055l2.613-7.226-.798-.797c-1.264-1.264-1.933-3.006-1.48-4.458zm19.321 13.03-1.102 1.103 1.103-1.103z" opacity="1" data-original="#5692d8"></path></g></svg>