
<svg clip-rule="evenodd" fill-rule="evenodd" height="512" stroke-linejoin="round" stroke-miterlimit="2" viewBox="514 514 60 60" width="512" xmlns="http://www.w3.org/2000/svg" xmlns:serif="http://www.serif.com/"><rect x="514" y="514" width="60" height="60" fill="#F7F4EB"/><path d="m574 543.997c0-16.572-13.432-30.004-30.003-30.004-16.572 0-30.004 13.432-30.004 30.004 0 16.571 13.432 30.003 30.004 30.003 16.571 0 30.003-13.432 30.003-30.003z" fill="#66a4ff"/><path d="m524.875 520.875c-6.647 5.502-10.882 13.817-10.882 23.122 0 16.571 13.432 30.003 30.004 30.003 9.304 0 17.619-4.235 23.122-10.882-5.193 4.299-11.856 6.882-19.122 6.882-16.572 0-30.004-13.432-30.004-30.003 0-7.267 2.583-13.93 6.882-19.122z" fill="#5692d8"/><path d="m572.772 552.521c-3.673 12.418-15.165 21.479-28.775 21.479-6.003 0-11.593-1.762-16.282-4.798l.201-1.075s5.536-8.314 10.809-8.314c5.272 0 7.908 2.635 13.18 2.635s5.272-2.635 7.908-5.271c2.635-2.636 11.914-4.692 11.914-4.692z" fill="#94f283"/><path d="m567.119 563.118c-5.504 6.648-13.819 10.882-23.122 10.882-6.003 0-11.593-1.762-16.282-4.798l.201-1.075s1.131-1.698 2.857-3.56c4.874 3.423 10.814 5.433 17.224 5.433 7.266 0 13.929-2.583 19.122-6.882z" fill="#94d688"/><path d="m538.559 514.485.134 1.078s1.965 9.793-1.763 13.52c-3.728 3.728-7.456 3.728-11.184 7.456-3.727 3.729-1.864 5.593-1.864 9.32 0 3.729-5.108 11.742-5.108 11.742l-.707 1.501c-2.59-4.436-4.074-9.597-4.074-15.105 0-14.714 10.59-26.953 24.566-29.512z" fill="#94f283"/><path d="m524.874 520.876c-4.298 5.191-6.881 11.854-6.881 19.121 0 4.833 1.143 9.4 3.172 13.442-1.22 2.325-2.391 4.162-2.391 4.162l-.707 1.501c-2.59-4.436-4.074-9.597-4.074-15.105 0-9.304 4.234-17.618 10.881-23.121z" fill="#94d688"/><path d="m542.641 537.664-.797-.798c-1.655-1.654-4.13-2.291-5.699-.722-.001 0-.001 0-.001.001-1.569 1.569-.932 4.044.722 5.699l.798.797-2.613 7.226c-.133.368-.042.778.234 1.055l1.874 1.874c.189.189.445.295.712.296.267 0 .523-.107.712-.295l4.618-4.618 3.317 3.316-.438 3.759c-.036.305.07.61.288.828l.623.625c.189.189.445.295.713.295.267 0 .523-.106.712-.295l3.103-3.102 1.242.443c.366.131.775.039 1.05-.237.276-.275.368-.684.237-1.05l-.443-1.242 3.102-3.103c.189-.189.295-.445.295-.712 0-.268-.106-.524-.295-.713l-.625-.623c-.218-.218-.523-.324-.828-.288l-3.759.437-3.316-3.316 4.618-4.618c.188-.189.295-.445.295-.712s-.107-.523-.296-.712l-1.874-1.874c-.277-.276-.687-.367-1.055-.235z" fill="#e5e5e5"/><path d="m541.201 550.179 3.317 3.316-.438 3.759c-.036.305.07.61.288.828l.623.625c.189.189.445.295.713.295.267 0 .523-.106.712-.295l3.103-3.102 1.242.443c.366.131.775.039 1.05-.237.276-.275.368-.684.237-1.05l-.396-1.109-.133-.047-3.103 3.102c-.189.189-.445.295-.712.295-.268 0-.524-.106-.713-.295l-.623-.625c-.218-.218-.324-.523-.288-.828l.438-3.759-3.317-3.316zm-5.815-12.793c-.449.14-.871.388-1.241.758-.001 0-.001 0-.001.001-1.569 1.569-.932 4.044.722 5.699l.798.797-2.613 7.226c-.133.368-.042.778.234 1.055l1.874 1.874c.189.189.445.295.712.296.267 0 .523-.107.712-.295l2-2c-.189.188-.445.295-.712.295-.267-.001-.523-.107-.712-.296l-1.874-1.874c-.276-.277-.367-.687-.234-1.055l2.613-7.226-.798-.797c-1.264-1.264-1.933-3.006-1.48-4.458zm19.321 13.03-1.102 1.103 1.103-1.103z" fill="#5692d8"/></svg>